<svg id="Capa_2" data-name="Capa 2" xmlns="http://www.w3.org/2000/svg" viewBox="0 0 2946.29 1947.19"><defs><style>.cls-1{fill:#fff;}</style></defs><title>logo blanco</title><path class="cls-1" d="M402.57,2249.33c-17,23.61-64.85,92.29-135.79,97.77-72.15,5.58-157.86-55-169.32-116.64-21.39-115.08,223.25-194.3,524.73-423.69,334.66-254.63,634.19-614.26,858.35-883.4,14.68-17.63,100.89-121.35,241.41-223,120.25-87,235.12-167.67,388.94-161.24,126.61,5.29,218.51,67,248.12,87.48,86.58,59.76,130.75,131.45,186.09,221.28,71.53,116.1,63,145.82,135.79,269.31,67.46,114.51,93.9,121.45,154.23,214.42,99.41,153.17,133.44,297.34,157.59,399.67,29.49,125,2,80.11,38.56,488.87,13.4,150,21.63,206.65-16.76,243.58-50.11,48.2-119.28,4.71-305.12-6.86-234.47-14.6-300.19,43.68-352.06-12-38.32-41.15-32.5-88.77-8.38-386,13-160,35.76-188.08-13.41-214.42-103.15-55.26-298.41-205-298.41-205s-244,172.26-226.32,210.13c6.29,13.45,24.25,8,41.91,24,40.51,36.81,12.11,125.77-1.68,190.4-46.2,216.63,39.44,311.73-23.47,361.94-41.21,32.88-75.29-10-233-8.58-135.79,1.25-171.4,33.6-212.91,1.72-70.28-54-66-221.89-5-257.3,18.25-10.6,46.77-12.34,65.38,1.72,38.77,29.28-25.16,139.76,30.18,145.8,264.3,28.88,216.83,63.74,260.69-2.17,29.13-43.77-5.59-73.68,14.25-234.55,13.52-109.62,34.58-176,13.41-187-22.48-11.62-56,58.22-114,54.89-42.09-2.41-89.05-42.91-90.53-82.34-2-53.92,82.34-71.9,226.32-175,159-113.8,167.83-171.82,244.76-175,71.85-2.93,79.64,47,233,137.23,176.49,103.77,292.17,111.7,301.76,187,3.53,27.71-7.48,63.25-25.15,68.61-25.56,7.76-50.77-52-75.44-46.31-25.08,5.74-26.77,73.82-35.21,181.83-15,192.11-29.74,233.92,1.68,264.16,24.4,23.49,49.18,13.56,137.47,15.44,197.33,4.2,254.77,57.63,295.06,17.15,27.44-27.57,10.4-62,5-236.72-3.76-122.13,3.93-126.17,0-188.69-8.88-141.27-56-246.21-100.59-343.07-106.12-230.63-152.11-186.51-241.41-391.1-57.71-132.22-68.44-219.24-164.29-329.34-39.75-45.66-72.44-82.38-127.41-104.64-148-59.93-309.59,45-367.15,82.34-110,71.45-141.47,135.1-266.56,283-27.83,32.91-121.38,128.29-308.47,319.05C389,2342.29,500.2,2113.78,402.57,2249.33Z" transform="translate(-96.15 -538.77)"/></svg>